<?xml version="1.0" standalone="no"?><!DOCTYPE svg PUBLIC "-//W3C//DTD SVG 1.1//EN" "http://www.w3.org/Graphics/SVG/1.1/DTD/svg11.dtd">
<svg t="1702956554423" class="icon" viewBox="0 0 1024 1024" version="1.1" xmlns="http://www.w3.org/2000/svg" p-id="4262"
     width="200" height="200"><path d="M225.1 583c-14.5 0.1-27.6 9.8-27.6 30.8 0 21.2 13.4 35.4 31 35.4 14.7 0 28-10.1 28-29.5 0-24.7-13.9-36.7-31.4-36.7zM701.5 345.6h33.1V385h-33.1z" fill="#FFFFFF" p-id="4263"></path><path d="M925 511.4c0-228.1-185.6-413.6-413.6-413.6-228.1 0-413.6 185.6-413.6 413.6S283.3 925 511.4 925C739.5 925 925 739.5 925 511.4zM693.2 394.9c0.5-4.5 0.7-8.2 0.7-14.1v-36.1c0-4.7-0.2-7.5-0.3-10.8l9.8 7.8h28.9l5.1-7L748 343c0.7 0.5 1 0.9 1 1.2 0 0.3-0.3 0.7-0.9 1l-5.9 3.8v25.8c0 7.8 0.2 13.2 0.7 17.9v0.7c0 3.3-5.7 5.1-7 5.1-1 0-1.4-1-1.4-3.5v-6.3h-33.1v5.1c0 1.9-0.3 2.4-3.7 3.8-1.6 0.7-2.8 1-3.5 1-1 0-1.4-0.5-1.4-1.9 0.2-0.5 0.2-1.2 0.4-1.8z m-78.4-49.7H634c0.7-11.3 1-17.6 1-26.1l12 5.1c0.7 0.3 1 0.7 1 1 0 0.2-0.3 0.5-0.9 0.9-4 2.1-5.1 5.9-5.9 19.2H662l5.6-7.3 11 8.4c0.5 0.5 0.9 0.9 0.9 1.2s-0.3 0.7-0.7 0.9l-5.4 3.1c-0.3 15.5-0.9 28-1.7 35.2-0.9 7.7-2.4 11.3-14.8 16.7-0.9 0.3-1.4 0.5-1.9 0.5s-0.7-0.3-0.9-1c-0.7-4.9-3-7.7-16.5-11.1l0.3-2.1c8.9 1.7 14.6 2.6 18.3 2.6 6.3 0 7-2.4 7.5-7.3 1.2-10.4 1.4-18.5 1.4-35.4h-23.9c-2.3 28.2-11.7 50-36.4 64.3l-1.7-2.1c19.9-14.5 28.6-34.8 30.7-62.2h-15c-5.7 0-8.9 0.7-11.7 1.4l-4.2-6.3c4.2 0.4 7.2 0.4 11.9 0.4zM438 338.8h126.8l8.4-10.3 9.9 10.3c1 1 1.6 2.1 1.6 2.6 0 0.9-0.7 1.2-2.3 1.2h-75.9v35.5c41.6 13.9 52.3 20.2 52.3 32 0 4.4-2.3 6.3-3.8 6.3-1.4 0-3.1-1.6-5.6-4.7-5.9-8-20.7-19.5-42.8-30.3v57.8c0 13.2 0.2 26.3 0.7 34.1v1c0 2.3-0.7 3-4.4 4.9-1.6 0.9-2.8 1.2-3.7 1.2-1.2 0-1.6-1.2-1.6-4v-1.7c0.3-10.3 0.5-26 0.5-35.9v-96.3h-56.3c-3.7 0-8.7 0.7-11.7 1.9l-4.9-6.4c4.5 0.4 8.8 0.8 12.8 0.8z m-212.1 313c-19.9 0-36-14.7-36-34.8 0-18.3 14.2-36.6 38.4-36.6 18.2 0 35.6 13.6 35.6 34.7 0 21.7-17.3 36.7-38 36.7z m92.7-52.8c-2.1-11.5-4.9-14.4-17.4-14.4h-9.1c-2.8 0-3 0.2-3 3v26.5h12.5c10.2 0 11.1-1 13-8.3h1.9V627h-1.9c-1.9-8.5-2.7-9.8-13-9.8H289v21.2c0 7.9 1 9.7 12 10.2v1.5h-27.6v-1.5c9.1-0.4 10-2.3 10-10.2v-44.6c0-7.9-0.9-9.8-10-10.2V582h46.3c0 5.9 0.5 11.5 1 16.8l-2.1 0.2z m55.6 0c-2.1-11.5-4.9-14.4-17.4-14.4h-9.1c-2.8 0-3 0.2-3 3v26.5h12.5c10.2 0 11.1-1 13-8.3h1.9V627h-1.9c-1.9-8.5-2.7-9.8-13-9.8h-12.5v21.2c0 7.9 1 9.7 12 10.2v1.5H329v-1.5c9.1-0.4 10-2.3 10-10.2v-44.6c0-7.9-0.9-9.8-10-10.2V582h46.3c0 5.9 0.5 11.5 1 16.8l-2.1 0.2z m31.9-139.2c-3.7 10.8-9.1 13.9-24.4 14.1-8.5 0.2-17.9 0.2-27.5 0.2-19.3 0-39.5-0.2-54.2-0.7-20.2-0.7-21.9-3.1-21.9-17.8v-75.1c0-8.9-0.2-15.7-0.5-21.1l15.2 7c0.7 0.3 1 0.7 1 1s-0.3 0.7-0.9 1l-6.6 4.7v15h88v-44.4h-90.6c-3.7 0-8.7 0.7-11.7 1.9l-4.9-6.4c4.4 0.3 8.7 0.7 12.7 0.7h91.3l5.4-7.7 12.2 8.7c0.7 0.3 0.9 0.7 0.9 1 0 0.3-0.2 0.7-0.9 1.2l-5.9 4v33.3c0 2.8 1 16.5 1 17.9 0 2.1-1 2.8-4.9 4.4-1.7 0.7-2.8 1-3.5 1-1 0-1.2-0.9-1.2-2.3v-9.6h-88v63.7c0 6.8 3 9.4 13.6 10.3 3.8 0.3 16.7 0.3 31.3 0.3 20.4 0 44.4-0.2 52.2-0.7 10.1-0.7 11.1-1.9 12.5-35.2h3.3c-0.3 21.4 1.4 24.2 6.3 26.1 0.7 0.2 0.9 0.5 0.9 1.2 0.2 0.9 0.2 1.4-0.2 2.3z m20.4 192c-4.5-0.2-8.3-0.9-11-1.7-2.6-0.9-4-1.6-4.7-2.1-0.9-2.8-2-10.7-2.6-17.2h1.7c1.7 5.9 6.4 18.2 19.2 18.2 8.4 0 13.5-4.6 13.5-14.2 0-11-8.9-14.7-14.7-18-1-0.5-17-5.7-17-18.9 0-9 7.4-17.5 20.2-17.5 3.6 0 6.7 0.3 12.7 2.3 0.4 3.7 1 7.7 1.7 15.1h-1.9c-1.9-6.3-4.5-14.9-15-14.9-7.8 0-11.8 5.1-11.8 12.2 0 9.1 6.6 12.7 13.7 16.3 4.8 2.4 18.2 7.1 18.2 20.7 0.2 11.3-8.5 19.5-22.2 19.7z m109.1-68.3c-9.6 0.8-10.5 2.4-10.5 10.9v43.3c0 8.6 0.9 10.2 10.1 10.9v1.5h-26.9v-1.5c10.2-0.7 11.1-2.3 11.1-10.9v-21.9h-45.9v21.9c0 8.6 1 10.2 10.6 10.9v1.5h-26.2v-1.5c9.1-0.7 10-2.3 10-10.9v-43.3c0-8.5-0.9-10.1-10.4-10.9V582h26.1v1.5c-9 0.8-10 2.4-10 10.9v18.1h45.9v-18.1c0-8.5-0.9-10.1-10.2-10.9V582h26.3v1.5z m58.4 66.7h-50.9v-1.5c10.2-0.5 11-2.4 11-10.8v-42.7c0-9.4-0.9-11.2-9.9-11.6V582h47.4c0 3.8 0.5 10.2 1 16.7l-1.9 0.3c-2.3-11.1-4.4-14.4-17.5-14.4H563c-2.9 0-3 0.2-3 3v25.5h12.7c8.6 0 10.7-1.1 12.3-8.4h1.9V625H585c-1.7-8.4-4-8.8-12.3-8.8H560v21.2c0 10.2 4.5 10.2 13.5 10.2 6.6 0 13.2-0.1 16.7-4.1 1.7-2.1 4.5-5.9 6.1-10.8h1.9c-1.3 4.1-3.3 13.8-4.2 17.5z m4.6-174.9c27.7-15 45.8-30 64.8-51.4h-41.6c-3.7 0-8.7 0.7-11.7 1.9l-4.9-6.4c4.4 0.3 8.7 0.7 12.7 0.7h58c0-9.4 0-14.8-0.3-20.9l12.4 4.9c0.9 0.3 1.2 0.7 1.2 1 0 0.5-0.5 0.9-5.2 4.4v10.6h53.1l7.7-10.1 12 12c0.5 0.5 0.9 1 0.9 1.4 0 0.3-0.5 0.5-1.9 0.5h-64.4c19.2 23.2 38.8 34 70.9 36.7v1.7c-9.8 1-12 2.8-14.8 7.3-0.3 0.5-0.7 0.9-1.2 0.9-0.3 0-0.7-0.2-1.2-0.3-31-12.4-46.3-26.6-58-46.3h-3V460c0 8.2 0.3 12.7 0.5 15.7v1.2c0 2.3-0.5 3-4.2 4.5-1.6 0.7-2.6 1-3.3 1-1.2 0-1.6-1.2-1.6-4 0-0.2 0.5-18.3 0.5-21.8v-32.7h-2.6c-17.2 19.5-35.9 37.1-73.1 53.5l-1.7-2.1z m54.1 174.9h-47.4v-1.5c9.3-0.4 10-2.3 10-11.4v-42.8c0-8.5-0.8-10.3-10.5-10.9V582h27v1.5c-9.9 0.5-10.9 2.4-10.9 10.9v41.3c0 11.5 2.6 11.9 13.7 11.9 6.5 0 11.8-1.3 14.3-3.9 1.4-2 3.9-5.7 5.7-10.5h2c-0.8 3.6-3.2 12.2-3.9 17z m81-66.7c-7.8 1.1-8.6 2.6-13.4 12.1-1.9 3.2-16 33.9-24.8 55.7H694c-7.1-19.5-15.1-38.6-22.9-58.1-3-7.7-4.7-9.3-11.3-9.7V582h23.5v1.5c-5.4 0.7-7.8 1-7.8 3.6 0 1 0.3 2.2 1 3.8 2.4 6.3 10.8 27.8 20 50h0.1c2.2-4.6 20.9-46.8 20.9-52.8 0-3.3-2.6-3.6-8.3-4.6V582h24.4v1.5z m56.2 66.7H739v-1.5c10.2-0.5 11-2.4 11-10.8v-42.7c0-9.4-0.9-11.2-9.9-11.6V582h47.4c0 3.8 0.5 10.2 1 16.7l-1.9 0.3c-2.3-11.1-4.4-14.4-17.5-14.4h-10.2c-2.9 0-3 0.2-3 3v25.5h12.7c8.6 0 10.7-1.1 12.3-8.4h1.9V625h-1.9c-1.7-8.4-4-8.8-12.3-8.8h-12.7v21.2c0 10.2 4.5 10.2 13.5 10.2 6.6 0 13.2-0.1 16.7-4.1 1.7-2.1 4.5-5.9 6.1-10.8h1.9c-1.2 4.1-3.3 13.8-4.2 17.5z m14.2-19.4c1.7 5.9 6.4 18.2 19.2 18.2 8.4 0 13.5-4.6 13.5-14.2 0-11-8.9-14.7-14.7-18-1-0.5-17-5.7-17-18.9 0-9 7.4-17.5 20.2-17.5 3.6 0 6.7 0.3 12.7 2.3 0.4 3.7 1 7.7 1.7 15.1h-1.9c-1.9-6.3-4.5-14.9-15-14.9-7.8 0-11.8 5.1-11.8 12.2 0 9.1 6.6 12.7 13.7 16.3 4.8 2.4 18.2 7.1 18.2 20.7 0 11.3-8.7 19.5-22.4 19.7-4.5-0.2-8.3-0.9-11-1.7-2.6-0.9-4-1.6-4.7-2.1-0.9-2.8-2-10.7-2.6-17.2h1.9z" fill="#FFFFFF" p-id="4264"></path><path d="M932.6 333.4c-23-54.4-56-103.3-98-145.3-42-42-90.9-74.9-145.3-98-56.4-23.8-116.3-35.9-178-35.9s-121.6 12.1-178 35.9c-54.4 23-103.3 56-145.3 98S113.1 279 90 333.4c-23.8 56.4-35.9 116.3-35.9 178S66.2 633 90 689.4c23 54.4 56 103.3 98 145.3 42 42 90.9 74.9 145.3 98 56.4 23.8 116.3 35.9 178 35.9s121.6-12.1 178-35.9c54.4-23 103.3-56 145.3-98 42-42 74.9-90.9 98-145.3 23.8-56.4 35.9-116.3 35.9-178 0.1-61.7-12-121.6-35.9-178z m-834.9 178c0-228.1 185.6-413.6 413.6-413.6C739.5 97.7 925 283.3 925 511.4S739.5 925 511.4 925C283.3 925 97.7 739.5 97.7 511.4z" fill="" p-id="4265"></path><path d="M405.6 456.7c-4.9-1.9-6.6-4.7-6.3-26.1H396c-1.4 33.3-2.4 34.5-12.5 35.2-7.8 0.5-31.9 0.7-52.2 0.7-14.6 0-27.5 0-31.3-0.3-10.6-0.9-13.6-3.5-13.6-10.3v-63.7h88v9.6c0 1.4 0.2 2.3 1.2 2.3 0.7 0 1.7-0.3 3.5-1 3.8-1.6 4.9-2.3 4.9-4.4 0-1.4-1-15.2-1-17.9v-33.3l5.9-4c0.7-0.5 0.9-0.9 0.9-1.2 0-0.3-0.2-0.7-0.9-1l-12.2-8.7-5.4 7.7H280c-4 0-8.4-0.3-12.7-0.7l4.9 6.4c3-1.2 8-1.9 11.7-1.9h90.6v44.4h-88v-15l6.6-4.7c0.5-0.3 0.9-0.7 0.9-1s-0.3-0.7-1-1l-15.2-7c0.3 5.4 0.5 12.2 0.5 21.1V456c0 14.6 1.7 17.1 21.9 17.8 14.6 0.5 34.8 0.7 54.2 0.7 9.6 0 19 0 27.5-0.2 15.3-0.2 20.7-3.3 24.4-14.1 0.3-0.9 0.3-1.4 0.3-1.9-0.1-1.1-0.3-1.4-1-1.6zM441.9 342.6h56.3v96.3c0 9.9-0.2 25.6-0.5 35.9v1.7c0 2.8 0.3 4 1.6 4 0.9 0 2.1-0.3 3.7-1.2 3.7-1.9 4.4-2.6 4.4-4.9v-1c-0.5-7.8-0.7-20.9-0.7-34.1v-57.8c22.1 10.8 36.9 22.3 42.8 30.3 2.4 3.1 4.2 4.7 5.6 4.7 1.6 0 3.8-1.9 3.8-6.3 0-11.8-10.6-18.1-52.3-32v-35.5h75.9c1.6 0 2.3-0.3 2.3-1.2 0-0.5-0.5-1.6-1.6-2.6l-9.9-10.3-8.4 10.3H438c-4 0-8.4-0.3-12.7-0.7l4.9 6.4c2.9-1.3 8-2 11.7-2zM673.3 423.9h2.6v32.7c0 3.5-0.5 21.6-0.5 21.8 0 2.8 0.3 4 1.6 4 0.7 0 1.7-0.3 3.3-1 3.7-1.6 4.2-2.3 4.2-4.5v-1.2c-0.2-3-0.5-7.5-0.5-15.7v-36.1h3c11.7 19.7 27 34 58 46.3 0.5 0.2 0.9 0.3 1.2 0.3 0.5 0 0.9-0.3 1.2-0.9 2.8-4.5 5.1-6.3 14.8-7.3v-1.7c-32-2.8-51.7-13.6-70.9-36.7h64.4c1.4 0 1.9-0.2 1.9-0.5s-0.3-0.9-0.9-1.4l-12-12-7.7 10.1h-53.1v-10.6c4.7-3.5 5.2-3.8 5.2-4.4 0-0.3-0.3-0.7-1.2-1l-12.4-4.9c0.3 6.1 0.3 11.5 0.3 20.9h-58c-4 0-8.4-0.3-12.7-0.7l4.9 6.4c3-1.2 8-1.9 11.7-1.9h41.6c-19 21.4-37.1 36.4-64.8 51.4l1.6 2.1c37.3-16.4 56-34 73.2-53.5zM694.4 398.7c0.7 0 1.9-0.3 3.5-1 3.3-1.4 3.7-1.9 3.7-3.8v-5.1h33.1v6.3c0 2.4 0.3 3.5 1.4 3.5 1.2 0 7-1.7 7-5.1v-0.7c-0.5-4.7-0.7-10.1-0.7-17.9V349l5.9-3.8c0.5-0.3 0.9-0.7 0.9-1 0-0.3-0.3-0.7-1-1.2l-10.8-8.2-5.1 7h-28.9l-9.8-7.8c0.2 3.3 0.3 6.1 0.3 10.8v36.1c0 5.9-0.2 9.6-0.7 14.1-0.2 0.7-0.2 1.4-0.2 1.9 0 1.3 0.3 1.8 1.4 1.8z m7.1-53.1h33.1V385h-33.1v-39.4zM618.6 349.6h15c-2.1 27.3-10.8 47.7-30.7 62.2l1.7 2.1c24.7-14.3 34.1-36.1 36.4-64.3h24c0 16.9-0.2 24.9-1.4 35.4-0.5 4.9-1.2 7.3-7.5 7.3-3.7 0-9.4-0.9-18.3-2.6l-0.3 2.1c13.6 3.5 15.8 6.3 16.5 11.1 0.2 0.7 0.3 1 0.9 1s1-0.2 1.9-0.5c12.4-5.4 13.9-9.1 14.8-16.7 0.9-7.1 1.4-19.7 1.7-35.2l5.4-3.1c0.3-0.2 0.7-0.5 0.7-0.9s-0.3-0.7-0.9-1.2l-11-8.4-5.6 7.3h-20.7c0.9-13.2 1.9-17.1 5.9-19.2 0.5-0.3 0.9-0.7 0.9-0.9 0-0.3-0.3-0.7-1-1l-12-5.1c0 8.5-0.3 14.8-1 26.1h-19.2c-4.7 0-7.7 0-12-0.5l4.2 6.3c2.8-0.6 5.9-1.3 11.6-1.3zM228.3 580.4c-24.3 0-38.4 18.3-38.4 36.6 0 20.1 16.1 34.8 36 34.8 20.7 0 38-15 38-36.7 0-21.1-17.5-34.7-35.6-34.7z m0.2 68.8c-17.6 0-31-14.2-31-35.4 0-21 13.2-30.7 27.6-30.8 17.5 0 31.4 12 31.4 36.7 0 19.4-13.3 29.5-28 29.5zM273.3 582v1.5c9.1 0.4 10 2.3 10 10.2v44.6c0 7.9-0.9 9.8-10 10.2v1.5H301v-1.5c-11-0.5-12-2.3-12-10.2v-21.2h12.5c10.2 0 11.1 1.3 13 9.8h1.9v-21.1h-1.9c-1.9 7.3-2.7 8.3-13 8.3H289v-26.5c0-2.8 0.2-3 3-3h9.1c12.5 0 15.3 2.8 17.4 14.4l2-0.2c-0.4-5.2-1-10.9-1-16.8h-46.2zM329 582v1.5c9.1 0.4 10 2.3 10 10.2v44.6c0 7.9-0.9 9.8-10 10.2v1.5h27.6v-1.5c-11-0.5-12-2.3-12-10.2v-21.2h12.5c10.2 0 11.1 1.3 13 9.8h1.9v-21.1h-1.9c-1.9 7.3-2.7 8.3-13 8.3h-12.5v-26.5c0-2.8 0.2-3 3-3h9.1c12.5 0 15.3 2.8 17.4 14.4l2-0.2c-0.4-5.2-1-10.9-1-16.8H329zM430.7 611.4c-7.1-3.6-13.7-7.2-13.7-16.3 0-7.1 3.9-12.2 11.8-12.2 10.6 0 13.2 8.6 15 14.9h1.9c-0.8-7.4-1.3-11.4-1.7-15.1-6-2-9.1-2.3-12.7-2.3-12.8 0-20.2 8.5-20.2 17.5 0 13.3 16 18.4 17 18.9 5.8 3.3 14.7 7 14.7 18 0 9.6-5.1 14.2-13.5 14.2-12.7 0-17.4-12.3-19.2-18.2h-1.7c0.7 6.5 1.7 14.4 2.6 17.2 0.7 0.4 2.1 1.2 4.7 2.1 2.7 0.9 6.5 1.5 11 1.7 13.7-0.2 22.4-8.4 22.4-19.7-0.2-13.6-13.6-18.3-18.4-20.7zM509.2 583.5c9.4 0.8 10.2 2.4 10.2 10.9v18.1h-45.9v-18.1c0-8.5 1-10.1 10-10.9V582h-26.1v1.5c9.6 0.8 10.4 2.4 10.4 10.9v43.3c0 8.6-0.9 10.2-10 10.9v1.5H484v-1.5c-9.6-0.7-10.6-2.3-10.6-10.9v-21.9h45.9v21.9c0 8.6-0.9 10.2-11.1 10.9v1.5h26.9v-1.5c-9.3-0.7-10.1-2.3-10.1-10.9v-43.3c0-8.5 0.9-10.1 10.5-10.9V582h-26.3v1.5zM590 643.5c-3.5 4-10 4.1-16.7 4.1-9 0-13.5 0-13.5-10.2v-21.2h12.7c8.3 0 10.6 0.4 12.3 8.8h1.9v-20.2h-1.9c-1.6 7.3-3.7 8.4-12.3 8.4h-12.7v-25.5c0-2.8 0.1-3 3-3H573c13.2 0 15.2 3.3 17.5 14.4l1.9-0.3c-0.4-6.4-1-12.8-1-16.7H544v1.5c9 0.4 9.9 2.3 9.9 11.6v42.7c0 8.4-0.8 10.2-11 10.8v1.5H594c0.9-3.7 2.9-13.4 3.9-17.4H596c-1.6 4.8-4.3 8.7-6 10.7zM649 643.6c-2.5 2.6-7.7 3.9-14.3 3.9-11.1 0-13.7-0.3-13.7-11.9v-41.3c0-8.5 1-10.3 10.9-10.9V582h-27v1.5c9.7 0.5 10.5 2.4 10.5 10.9v42.8c0 9.1-0.8 11-10 11.4v1.5h47.4c0.8-4.8 3.2-13.4 3.9-17h-2c-1.8 4.9-4.3 8.6-5.7 10.5zM709.3 583.5c5.7 1 8.3 1.3 8.3 4.6 0 6-18.7 48.2-20.9 52.8h-0.1c-9.3-22.2-17.6-43.7-20-50-0.7-1.6-1-2.8-1-3.8 0-2.6 2.4-2.9 7.8-3.6V582h-23.5v1.5c6.6 0.4 8.3 2 11.3 9.7 7.7 19.5 15.8 38.6 22.9 58.1h1.4c8.8-21.9 23-52.6 24.8-55.7 4.8-9.5 5.6-11 13.4-12.1V582h-24.4v1.5zM785.9 643.5c-3.5 4-10 4.1-16.7 4.1-9 0-13.5 0-13.5-10.2v-21.2h12.7c8.3 0 10.6 0.4 12.3 8.8h1.9v-20.2h-1.9c-1.6 7.3-3.7 8.4-12.3 8.4h-12.7v-25.5c0-2.8 0.1-3 3-3H769c13.2 0 15.2 3.3 17.5 14.4l1.9-0.3c-0.4-6.4-1-12.8-1-16.7H740v1.5c9 0.4 9.9 2.3 9.9 11.6v42.7c0 8.4-0.8 10.2-11 10.8v1.5h50.9c0.9-3.7 2.9-13.4 3.9-17.4H792c-1.6 4.8-4.3 8.7-6.1 10.7zM809.6 650.1c2.7 0.9 6.5 1.5 11 1.7 13.7-0.2 22.4-8.4 22.4-19.7 0-13.6-13.4-18.3-18.2-20.7-7.1-3.6-13.7-7.2-13.7-16.3 0-7.1 3.9-12.2 11.8-12.2 10.6 0 13.2 8.6 15 14.9h1.9c-0.8-7.4-1.3-11.4-1.7-15.1-6-2-9.1-2.3-12.7-2.3-12.8 0-20.2 8.5-20.2 17.5 0 13.3 16 18.4 17 18.9 5.8 3.3 14.7 7 14.7 18 0 9.6-5.1 14.2-13.5 14.2-12.7 0-17.4-12.3-19.2-18.2h-1.7c0.7 6.5 1.7 14.4 2.6 17.2 0.5 0.4 1.9 1.2 4.5 2.1z" fill="" p-id="4266"></path></svg>