<?xml version="1.0" standalone="no"?><!DOCTYPE svg PUBLIC "-//W3C//DTD SVG 1.1//EN" "http://www.w3.org/Graphics/SVG/1.1/DTD/svg11.dtd">
<svg t="1690620584509" class="icon" viewBox="0 0 1024 1024" version="1.1" xmlns="http://www.w3.org/2000/svg" p-id="6800"
     width="16" height="16"><path d="M728.4 954.4H295.6c-40.5 0-73.4-32.9-73.4-73.4v-37.8c-59.5-34-109.7-82.4-146-140.8C36.2 637.9 15 563.6 15 487.7v-18.4c0-13.8 11.2-25 25-25h944c13.8 0 25 11.2 25 25v18.4c0 76-21.2 150.2-61.3 214.8-36.3 58.4-86.5 106.8-146 140.8V881c0.1 40.5-32.9 73.4-73.3 73.4zM65 494.2c2.4 131.4 76.2 250.5 193.8 312.1 8.2 4.3 13.4 12.8 13.4 22.2V881c0 12.9 10.5 23.4 23.4 23.4h432.7c12.9 0 23.4-10.5 23.4-23.4v-52.6c0-9.3 5.2-17.8 13.4-22.2 117.7-61.4 191.5-180.6 193.9-312H65z" fill="#707070" p-id="6801"></path><path d="M976.4 588.6H47.6c-13.8 0-25-11.2-25-25s11.2-25 25-25h928.9c13.8 0 25 11.2 25 25s-11.3 25-25.1 25zM111.6 252.4H40c-13.8 0-25-11.2-25-25s11.2-25 25-25h71.6c13.8 0 25 11.2 25 25s-11.2 25-25 25zM984 252.4H635c-13.8 0-25-11.2-25-25s11.2-25 25-25h349c13.8 0 25 11.2 25 25s-11.2 25-25 25zM111.6 341.7H40c-13.8 0-25-11.2-25-25s11.2-25 25-25h71.6c13.8 0 25 11.2 25 25s-11.2 25-25 25zM984 341.7H635c-13.8 0-25-11.2-25-25s11.2-25 25-25h349c13.8 0 25 11.2 25 25s-11.2 25-25 25z" fill="#707070" p-id="6802"></path><path d="M247.1 329.5c-13.8 0-25-11.2-25-25v-152c0-45 40.4-81.6 90.1-81.6 13.8 0 25 11.2 25 25s-11.2 25-25 25c-21.7 0-40.1 14.4-40.1 31.6v152c0 13.8-11.2 25-25 25z" fill="#E99020" p-id="6803"></path><path d="M182 404.5c-13.8 0-25-11.2-25-25s11.2-25 25-25c21.7 0 40.1-14.4 40.1-31.6V171c0-13.8 11.2-25 25-25s25 11.2 25 25v152c0 45-40.4 81.5-90.1 81.5z" fill="#E99020" p-id="6804"></path><path d="M397.2 329.5c-13.8 0-25-11.2-25-25v-152c0-45 40.4-81.6 90.1-81.6 13.8 0 25 11.2 25 25s-11.2 25-25 25c-21.7 0-40.1 14.4-40.1 31.6v152c0 13.8-11.2 25-25 25z" fill="#E99020" p-id="6805"></path><path d="M332.1 404.5c-13.8 0-25-11.2-25-25s11.2-25 25-25c21.7 0 40.1-14.4 40.1-31.6V171c0-13.8 11.2-25 25-25s25 11.2 25 25v152c0 45-40.4 81.5-90.1 81.5z" fill="#E99020" p-id="6806"></path><path d="M547.3 329.5c-13.8 0-25-11.2-25-25v-152c0-45 40.4-81.6 90.1-81.6 13.8 0 25 11.2 25 25s-11.2 25-25 25c-21.7 0-40.1 14.4-40.1 31.6v152c0 13.8-11.2 25-25 25z" fill="#E99020" p-id="6807"></path><path d="M482.2 404.5c-13.8 0-25-11.2-25-25s11.2-25 25-25c21.7 0 40.1-14.4 40.1-31.6V171c0-13.8 11.2-25 25-25s25 11.2 25 25v152c0 45-40.4 81.5-90.1 81.5z" fill="#E99020" p-id="6808"></path></svg>