<?xml version="1.0" standalone="no"?><!DOCTYPE svg PUBLIC "-//W3C//DTD SVG 1.1//EN" "http://www.w3.org/Graphics/SVG/1.1/DTD/svg11.dtd"><svg t="1690620213449" class="icon" viewBox="0 0 1418 1024" version="1.1" xmlns="http://www.w3.org/2000/svg" p-id="1384" xmlns:xlink="http://www.w3.org/1999/xlink" width="276.953125" height="200"><path d="M1388.525735 693.27328s89.499398-64.930373-41.175918-152.777686c-130.66958-87.841577-150.534752-332.68857-267.000992-454.076646-116.471976-121.382339-302.692906-122.087917-321.066612 47.744103-18.36797 169.826283 183.914895 305.933975 339.382955 344.918586 155.479533 38.990348 218.063717 288.782123 289.860567 214.191643z" fill="#8C1A00" p-id="1385"></path><path d="M1300.993925 706.094147s82.500983-62.750539-37.952059-147.655077c-120.453042-84.893064-138.763648-321.531262-246.120476-438.852226C909.55309 2.271617 737.891157 1.588984 720.957288 165.73049c-16.933869 164.135769 169.533727 295.677282 312.85208 333.35973 143.318354 37.676711 200.99791 279.099071 267.184557 207.003927z" fill="#611200" p-id="1386"></path><path d="M11.036959 645.007165c35.623078 166.074674 344.763704 378.987099 663.036687 378.987099 318.267247 0 858.229355-76.523649 588.675663-451.86813C1067.315712 299.985323 980.804982 0 587.321986 0 269.049003 0-65.383435 288.782123 11.036959 645.007165z" fill="#9C1D00" p-id="1387"></path><path d="M108.968873 506.014061c-31.033953 198.703348 154.412562 405.29999 414.214364 461.424981 259.796066 56.130727 716.350839-10.10181 747.39053-208.787949 31.028217-198.691875-265.016195-280.768365-400.544511-283.475948-401.823729-8.030968-730.020694-167.847223-761.060383 30.838916z" fill="#8F0000" p-id="1388"></path><path d="M113.144976 513.012476c-30.276748 193.861822 152.565439 395.846394 408.391913 451.11666 255.820737 55.270266 699.721-9.711734 730.003484-203.56782 30.265275-193.856086-258.734831-276.712726-395.267017-280.286506-392.140676-10.262429-712.845896-161.11842-743.12838 32.737666z" fill="#8F0000" p-id="1389"></path><path d="M117.321079 520.005154c-29.519542 189.026032 150.706844 386.398535 402.569461 440.80834 251.845408 54.409806 683.079688-9.321659 712.610704-198.336218 29.519542-189.026032-252.436258-272.651351-389.989525-277.102802C460.059832 473.01252 146.846358 330.984858 117.321079 520.005154z" fill="#8F0000" p-id="1390"></path><path d="M121.491446 527.003568c-28.762337 184.184506 148.859721 376.944938 396.74701 430.494284 247.870079 53.555081 666.444112-8.931583 695.217921-193.110353 28.762337-184.190243-246.131949-268.56703-384.712031-273.907624C455.998457 476.115916 150.265255 342.80759 121.491446 527.003568z" fill="#8F0000" p-id="1391"></path><path d="M125.667549 533.99051c-28.010868 179.354453 147.006862 367.497079 390.918822 420.191699 243.906223 52.69462 649.808536-8.541508 677.82514-187.890224 28.010868-179.354453-239.821903-264.471237-379.434538-270.718182-363.034155-16.256973-661.287084-140.937745-689.309424 38.416707z" fill="#8F0000" p-id="1392"></path><path d="M129.843652 540.983189c-27.253662 174.518663 145.15974 358.049219 385.096371 409.883378 239.936631 51.83416 633.17296-8.151432 660.438095-182.664359 27.247926-174.518663-233.517593-260.346761-374.162782-267.528741-353.328157-18.035259-644.106549-134.208942-671.371684 40.309722z" fill="#8F0000" p-id="1393"></path><path d="M134.019755 547.981603c-26.502193 169.677137 143.301144 348.601359 379.273919 399.569322 235.955565 50.979435 616.543121-7.75562 643.045314-177.438494 26.496457-169.682873-227.201811-256.205076-368.885288-264.333563-343.616423-19.716026-626.931751-127.485875-653.433945 42.202735z" fill="#8F0000" p-id="1394"></path><path d="M138.190122 554.974281c-25.744988 164.841347 141.454022 339.147763 373.451467 389.266738 231.985973 50.113238 599.907545-7.365545 625.652533-172.212628 25.739251-164.85282-220.880292-252.046183-363.607795-261.149858-333.898952-21.293537-609.739744-120.762807-635.496205 44.095748z" fill="#8F0000" p-id="1395"></path><path d="M142.366225 561.961223c-24.987782 160.011294 139.601163 329.705639 367.62328 378.964153 228.022117 49.258514 583.271969-6.975469 608.265488-166.981026 24.987782-160.022766-214.558773-247.864343-358.324567-257.960416-324.192954-22.767793-592.564946-114.03974-617.564201 45.977289z" fill="#8F0000" p-id="1396"></path><path d="M146.542328 568.959638c-24.230577 155.169767 137.75404 320.246307 361.800828 368.650096 224.046788 48.403789 566.636394-6.579657 590.878443-161.755161 24.230577-155.186977-208.248727-243.648085-353.052809-254.765239-314.481219-24.156003-575.384412-107.316673-599.626462 47.870304z" fill="#8F0000" p-id="1397"></path><path d="M150.718431 575.952316c-23.479107 150.333978 135.895445 310.804184 355.978377 358.347512 220.071459 47.537592 550.000818-6.195318 573.485662-156.535032 23.479107-150.351187-201.921472-239.403145-347.775317-251.575797-304.775221-25.440958-558.203878-100.58787-581.688722 49.763317z" fill="#8F0000" p-id="1398"></path><path d="M154.888798 582.950731c-22.721902 145.492451 134.048322 301.344851 350.155925 348.033455 216.101866 46.682868 533.365242-5.805242 556.092881-151.309167 22.721902-145.515397-195.599953-235.129523-342.497824-248.386356C423.582029 504.666006 177.622173 437.423861 154.888798 582.950731z" fill="#8F0000" p-id="1399"></path><path d="M159.070638 589.937673c-21.970433 140.662398 132.195464 291.902728 344.327737 337.73087 212.126537 45.81667 516.729666-5.415167 538.705835-146.089037 21.964696-140.679607-189.278434-230.827219-337.22033-245.196915-285.363225-27.718311-523.842809-87.130262-545.813242 53.555082z" fill="#8F0000" p-id="1400"></path><path d="M163.246741 596.930351c-21.213227 135.826608 130.342605 282.454868 338.499549 327.42255 208.156944 44.961946 500.09409-5.025091 521.313054-140.857436 21.207491-135.849554-182.968388-226.48476-331.942837-242.007473-275.662964-28.727918-506.656538-80.407195-527.869766 55.442359z" fill="#8F0000" p-id="1401"></path><path d="M167.417108 603.928765c-20.456022 130.985082 128.489746 273.001272 332.677097 317.108494 204.187352 44.101485 483.458515-4.635016 503.92601-135.631571 20.456022-131.013764-176.646869-222.09641-326.665345-238.818031-265.974175-29.640007-489.476004-73.678392-509.937762 57.341108z" fill="#8F0000" p-id="1402"></path><path d="M171.593211 610.921444c-19.704553 126.149292 126.636887 263.553412 326.854646 306.805909 200.212023 43.241024 466.822939-4.24494 486.527492-130.405705 19.704553-126.177974-170.331087-217.662168-321.382116-235.628591-256.296859-30.483259-472.29547-66.961061-492.000022 59.228387z" fill="#8F0000" p-id="1403"></path><path d="M175.769314 617.914122c-18.947347 121.307766 124.789764 254.099816 321.032195 296.497588 196.24243 42.3863 450.187363-3.854864 469.146183-125.179839 18.947347-121.342184-164.03825-213.176299-316.110359-232.439149-246.636752-31.234728-455.120672-60.226521-474.068019 61.1214z" fill="#8F0000" p-id="1404"></path><path d="M179.945417 624.9068c-18.190142 116.477713 122.936905 244.651956 315.204007 286.189268 192.272838 41.525839 433.551787-3.464789 451.753402-119.953974 18.190142-116.512131-157.739677-208.62733-310.832866-229.243971-236.976645-31.911624-437.928665-53.50919-456.124543 63.008677z" fill="#8F0000" p-id="1405"></path><path d="M184.115784 631.899478c-17.438673 111.641923 121.084046 235.204096 309.381555 275.886684 188.297509 40.665378 416.916212-3.074713 434.36062-114.728109 17.438673-111.682078-151.452577-204.026733-305.555372-226.060266-227.328011-32.50821-420.742394-46.780386-438.186803 64.901691z" fill="#8F0000" p-id="1406"></path><path d="M188.291887 638.892157c-16.681467 106.800397 119.231187 225.7505 303.559104 265.572626 184.327916 39.804917 400.286372-2.678901 416.967839-109.502243 16.681467-106.846288-145.182685-199.345826-300.27788-222.870825-217.70806-33.013013-403.567596-40.045846-420.249063 66.800442z" fill="#8F0000" p-id="1407"></path><path d="M192.46799 645.884835c-15.924262 101.964607 117.384065 216.30264 297.736652 255.264306 180.352587 38.950193 383.650796-2.283089 399.580795-104.276378 15.924262-102.010498-138.941476-194.578873-295.000387-219.675647-208.111053-33.460453-386.387062-33.322779-402.31706 68.687719z" fill="#8F0000" p-id="1408"></path><path d="M196.644093 652.877513c-15.172792 97.134553 115.531206 206.860517 291.908464 244.961722 176.382995 38.089732 367.015221-1.89875 382.188013-99.056249 15.172792-97.168972-132.706004-189.720137-289.722893-216.486205-198.519783-33.839056-369.200791-26.593976-384.373584 70.580732z" fill="#8F0000" p-id="1409"></path><path d="M200.81446 659.875928c-14.415587 92.293027 113.678347 197.401184 286.086013 234.647665 172.413402 37.229271 350.379645-1.508675 364.800968-93.824648 14.421323-92.338918-126.493477-184.758147-284.445401-213.296764-188.962932-34.143085-352.020257-19.876645-366.44158 72.473747z" fill="#8F0000" p-id="1410"></path><path d="M204.990563 666.86287c-13.658381 87.457237 111.825488 187.959061 280.263561 224.339344 168.438073 36.374547 333.744069-1.112863 347.408187-88.593046 13.664118-87.508865-120.326841-179.669955-279.167907-210.107322-179.434762-34.378278-334.839722-13.147841-348.503841 74.361024z" fill="#8F0000" p-id="1411"></path><path d="M209.166667 673.861284c-12.906912 82.615711 109.978365 178.499728 274.441109 214.03676 164.468481 35.50835 317.108493-0.728523 330.021142-83.372916 12.906912-82.673075-114.194623-174.44409-273.896151-206.917881-169.941011-34.556106-317.659188-6.424774-330.5661 76.254037z" fill="#8F0000" p-id="1412"></path><path d="M213.34277 680.853963c-12.149707 77.785658 108.125506 169.057605 268.612921 203.728439 160.498888 34.653625 300.472917-0.338448 312.628361-78.147051 12.149707-77.837286-108.114033-169.046132-268.612922-203.72844-160.493152-34.659362-300.478654 0.304029-312.62836 78.147052z" fill="#8F0000" p-id="1413"></path><path d="M999.826902 747.155337c-514.762079-181.591651-1061.235008 114.728109-973.611414-359.322701-27.288081 78.795265-34.791299 165.753435-15.178529 257.180265 35.623078 166.074674 344.763704 378.987099 663.036687 378.987099 271.613062 0 704.562526-55.780807 658.166479-305.40049-104.310797 18.505644-222.727414 67.247881-332.413223 28.555827z" p-id="1414"></path><path d="M334.317824 698.120543c-9.281504 139.704418 269.536483 394.205782 493.589007 249.97534 321.072349-206.676952 498.361696-60.32404 507.648936-200.022721s-325.994185 51.352302-559.213485-99.446325C413.812931 414.202892 343.610801 558.410388 334.317824 698.120543z" p-id="1415"></path><path d="M1355.702023 688.74152s61.970388 131.185856-130.130357 91.105591c-192.089273-40.086001-350.104297 145.762062-545.302702 145.762063s-399.68405-160.344005-325.323026-317.045393c74.361024-156.695651 371.793646-94.748209 563.894392 7.290971 192.100746 102.033444 399.68405-51.01959 436.861693 72.886768z" fill="#9C1D00" p-id="1416"></path><path d="M114.59055 427.408097c9.149567 134.490026 168.277454 29.531015 357.762399-2.116734 326.705499-54.564689 590.603096 162.971279 581.459265 28.475517-9.138094-134.46708-266.226577-544.528287-620.512714-397.595998-179.050423 74.257769-327.841308 236.747189-318.70895 371.237215z" fill="#D46A51" p-id="1417"></path><path d="M1361.99486 707.069335c-2.764947-10.841806-6.298573-18.327815-6.298573-18.327815-37.171907-123.906358-244.760948 29.14094-436.855957-72.881031-170.600698-90.62947-424.264547-149.605454-530.99037-51.914469-23.553681 32.663093-45.512641 179.5667 82.954159 229.10056 211.610261 81.588895 409.831751-26.771804 565.351439-59.911018 155.525424-33.156423 325.839302 74.252032 325.839302-26.066227z" fill="#BA2300" p-id="1418"></path><path d="M277.492992 277.739543c5.93718 73.948003 109.146586 16.239764 232.049073-1.164491 211.902817-29.995664 383.071419 89.608389 377.145713 15.660387-5.925707-73.93653-172.683013-299.394473-402.477679-218.608675-116.133528 40.83747-212.642814 130.170512-206.717107 204.112779z" fill="#D46A51" p-id="1419"></path><path d="M853.5543 660.47825c-6.396092 37.4702-140.346896 87.141735-249.654102 68.481209-109.301469-18.666263-152.571176-98.597337-146.169347-136.067538 6.401828-37.4702 100.192058-52.723302 209.499263-34.062775 109.307206 18.666263 192.726014 64.178904 186.324186 101.649104z" fill="#D45639" p-id="1420"></path></svg>